HIERARCHY
ROOT hip
{
	OFFSET 0.000000 0.000000 0.000000 
	CHANNELS 6 Xposition Yposition Zposition Xrotation Zrotation Yrotation
	JOINT abdomen
	{
		OFFSET 0.000000 3.402643 0.000000 
		CHANNELS 3 Xrotation Zrotation Yrotation
		JOINT chest
		{
			OFFSET 0.000000 8.438565 -0.680529 
			CHANNELS 3 Xrotation Zrotation Yrotation
			JOINT neck
			{
				OFFSET 0.000000 10.207942 -0.272212 
				CHANNELS 3 Xrotation Zrotation Yrotation
				JOINT head
				{
					OFFSET 0.000000 3.130431 0.000000 
					CHANNELS 3 Xrotation Zrotation Yrotation
					End Site
					{
						OFFSET 0.000000 3.130435 0.000000 
					}
				}
			}
			JOINT lCollar
			{
				OFFSET 3.470700 6.669187 -0.816635 
				CHANNELS 3 Yrotation Zrotation Xrotation
				JOINT lShldr
				{
					OFFSET 3.198488 0.000000 0.000000 
					CHANNELS 3 Zrotation Yrotation Xrotation
					JOINT lForeArm
					{
						OFFSET 10.139888 0.000000 0.000000 
						CHANNELS 3 Yrotation Zrotation Xrotation
						JOINT lHand
						{
							OFFSET 8.370511 0.000000 0.000000 
							CHANNELS 3 Zrotation Yrotation Xrotation
							End Site
							{
								OFFSET 4.083176 0.000000 0.000000 
							}
						}
					}
				}
			}
			JOINT rCollar
			{
				OFFSET -3.470700 6.669187 -0.816635 
				CHANNELS 3 Yrotation Zrotation Xrotation
				JOINT rShldr
				{
					OFFSET -3.198488 0.000000 0.000000 
					CHANNELS 3 Zrotation Yrotation Xrotation
					JOINT rForeArm
					{
						OFFSET -10.139888 0.000000 0.000000 
						CHANNELS 3 Yrotation Zrotation Xrotation
						JOINT rHand
						{
							OFFSET -8.370511 0.000000 0.000000 
							CHANNELS 3 Zrotation Yrotation Xrotation
							End Site
							{
								OFFSET -4.083176 0.000000 0.000000 
							}
						}
					}
				}
			}
		}
	}
	JOINT lThigh
	{
		OFFSET 5.308129 -1.633274 1.361059 
		CHANNELS 3 Xrotation Zrotation Yrotation
		JOINT lShin
		{
			OFFSET -2.041588 -20.007561 0.000000 
			CHANNELS 3 Xrotation Zrotation Yrotation
			JOINT lFoot
			{
				OFFSET 0.000000 -19.190928 -1.224953 
				CHANNELS 3 Xrotation Yrotation Zrotation
				End Site
				{
					OFFSET 0.000000 -2.449906 4.627600 
				}
			}
		}
	}
	JOINT rThigh
	{
		OFFSET -5.308129 -1.633274 1.361059 
		CHANNELS 3 Xrotation Zrotation Yrotation
		JOINT rShin
		{
			OFFSET 2.041588 -20.007561 0.000000 
			CHANNELS 3 Xrotation Zrotation Yrotation
			JOINT rFoot
			{
				OFFSET 0.000000 -19.190928 -1.224953 
				CHANNELS 3 Xrotation Yrotation Zrotation
				End Site
				{
					OFFSET 0.000000 -2.449906 4.627600 
				}
			}
		}
	}
}
MOTION
Frames: 13
Frame Time: 0.016667
18.939213 40.911995 60.865120 23.684401 5.368870 7.468100 -13.524400 1.225850 -8.044010 20.665501 9.384750 -3.906670 -20.402100 9.721470 -6.050440 0.286627 9.996370 -0.930682 2.000000 -2.000000 0.000000 -84.655296 -5.759700 -166.755005 71.045502 -0.259258 0.129354 0.080808 -0.097946 -170.261993 -2.000000 2.000000 0.000000 87.195000 13.301300 144.910004 -104.365997 0.183351 0.113227 -0.136458 0.139986 162.326004 8.611712 -13.219659 0.239260 19.638094 8.436563 1.218890 20.401293 -2.250991 -2.159903 -61.566219 4.553637 0.817182 59.668758 -0.442643 -4.311968 -17.323029 -4.240302 0.167901 
19.549883 40.915470 63.370037 23.054501 7.033170 6.293900 -13.041000 0.738728 -8.175540 21.475800 8.866060 -3.968330 -21.065100 8.805360 -4.778070 -0.034908 9.428230 -0.419708 2.000000 -2.000000 0.000000 -83.687599 -2.877400 -166.136002 68.076698 -0.265895 0.126881 0.072719 -0.100444 -171.335999 -2.000000 2.000000 0.000000 88.605400 15.445400 147.113998 -109.688004 0.172079 0.109775 -0.119867 0.129306 169.376999 10.267009 -15.386683 0.012993 22.525696 8.316689 1.410830 19.544165 0.091573 -3.099856 -60.704250 4.311427 -0.630217 55.264942 -0.747869 -4.119577 -17.239256 -3.702373 0.607127 
20.095734 40.860264 65.786880 22.654499 8.491190 5.519050 -13.180400 1.013730 -8.607480 21.528000 9.852130 -4.159060 -21.493099 7.312710 -3.343750 -0.344766 8.743490 0.078648 2.000000 -2.000000 0.000000 -84.770897 0.708473 -165.324005 64.082603 -0.274605 0.123018 0.081854 -0.099517 -170.934998 -2.000000 2.000000 0.000000 87.985603 17.978800 149.893005 -114.444000 0.162315 0.105818 179.893005 179.871002 -4.724360 10.097964 -16.227736 0.680525 27.840052 6.381593 1.672675 18.905130 -1.483595 -1.515073 -59.650249 3.815277 -2.631653 51.986797 -0.965222 -3.925640 -16.794504 -3.200229 1.057393 
20.619343 40.744690 68.236641 22.075701 9.043850 4.664030 -13.118300 1.212400 -8.738980 21.627501 9.959230 -4.189200 -21.948999 6.193690 -2.014770 -0.624799 8.088530 0.548509 2.000000 -2.000000 0.000000 -85.219803 4.236550 -164.160004 59.980999 -0.283247 0.118430 0.081427 -0.098881 -170.662003 -2.000000 2.000000 0.000000 87.904297 21.243401 153.164993 -118.369003 0.154526 0.101951 179.906998 179.895004 2.345920 8.789302 -15.978514 3.682191 34.829010 4.907973 2.088554 18.182304 -5.493088 0.646045 -57.720501 3.827693 -5.088506 49.848446 -1.093219 -3.827952 -15.238509 -2.625821 1.507664 
21.141605 40.442131 70.664825 21.342501 9.509360 3.801790 -12.861600 1.205800 -8.777760 21.953100 9.577290 -4.181670 -22.432600 5.504030 -1.264430 -0.827254 7.600020 0.794936 2.000000 -2.000000 0.000000 -85.785797 7.629210 -162.419006 55.352100 -0.292577 0.112526 0.081961 -0.099675 -171.003998 -2.000000 2.000000 0.000000 88.039803 25.287201 157.309006 -121.123001 0.149228 0.098924 -0.087845 0.083887 -168.445007 7.106976 -15.550065 6.279712 42.928955 3.954465 2.598082 17.358803 -5.505835 1.110801 -55.337521 3.855304 -7.209444 49.594757 -1.089062 -3.835187 -12.910549 -2.071067 1.859113 
21.624771 40.248302 73.110550 20.699600 9.999160 3.285620 -12.422800 0.870208 -8.640910 22.531601 8.530160 -4.090600 -23.063601 5.122030 -0.702719 -1.029860 7.140890 0.964173 2.000000 -2.000000 0.000000 -86.215897 10.521700 -161.604996 50.508301 -0.301797 0.105562 0.079076 -0.095256 -169.119003 -2.000000 2.000000 0.000000 88.586700 29.564301 161.766006 -123.428001 0.144911 0.096197 -0.075215 0.068273 -158.307999 4.701254 -14.723694 9.123701 51.447014 3.084152 3.108532 17.051176 -3.105852 0.956948 -52.414066 3.593885 -8.200202 51.910000 -0.957706 -3.953747 -17.399368 -7.454098 -0.102532 
22.042557 39.985115 75.523788 19.746901 9.699530 2.710630 -12.433800 1.352090 -8.370880 22.057600 8.532270 -3.936980 -23.577101 4.828180 -0.563481 -1.225160 6.973790 0.994033 2.000000 -2.000000 0.000000 -87.925903 13.932000 -160.675003 45.547298 -0.310595 0.097649 0.076379 -0.081050 -167.263000 -2.000000 2.000000 0.000000 87.228897 33.039501 166.643005 -125.224998 0.141623 0.093952 -0.058413 0.035660 -149.764008 1.724906 -12.402787 11.984864 61.142529 2.221247 3.588161 15.373570 0.565610 0.528828 -49.440727 4.183471 -7.326765 54.665356 -0.810370 -4.078267 -21.844870 -6.769639 -0.655669 
22.422934 39.664539 77.783478 19.027399 8.537890 1.818540 -12.240100 1.844200 -7.650680 21.739500 7.801090 -3.529670 -24.122299 5.102490 -0.846274 -1.313880 6.992430 0.903434 2.000000 -2.000000 0.000000 -89.030502 16.364799 -160.171997 40.176201 -0.319309 0.088259 0.073645 -0.076187 -165.270996 -2.000000 2.000000 0.000000 85.588799 36.846600 171.473007 -125.839996 0.140514 0.093160 -0.055129 0.015290 -142.391006 -2.846138 -8.684845 14.418074 71.971054 1.334111 3.957608 11.792225 3.367306 0.351711 -46.788074 5.550683 -6.844964 56.597782 -0.671732 -4.161959 -24.499546 -8.291498 -1.946880 
22.802977 39.439190 80.013496 18.320900 5.833420 0.668685 -11.959400 2.543210 -6.649430 21.185400 6.239860 -2.929050 -25.638901 5.473780 -1.610190 -1.846700 7.132940 0.608348 2.000000 -2.000000 0.000000 -89.833199 18.521999 -160.597000 34.687901 -0.327266 0.077865 0.070242 -0.069512 -162.595993 -2.000000 2.000000 0.000000 -96.843002 139.764008 -4.567660 -125.126999 0.141800 0.094077 -0.054401 -0.001012 -136.559998 -7.350045 -3.509236 15.218671 80.757210 0.474627 4.203875 10.051781 4.670194 0.376990 -43.322662 7.981162 -7.975368 57.020664 -0.627805 -4.198821 -26.224796 -9.086770 -2.927062 
23.191551 39.344856 82.287453 17.149500 3.359680 -0.594305 -11.685700 3.771550 -5.528430 20.458500 5.683590 -2.246000 -25.944901 6.047260 -2.749470 -1.803680 7.687240 0.255641 2.000000 -2.000000 0.000000 -91.652100 20.267300 -161.815002 29.072599 -0.334339 0.066492 0.066230 -0.060464 -159.059998 -2.000000 2.000000 0.000000 -101.502998 137.104996 -1.898310 -122.431999 0.146763 0.097397 -0.055035 -0.004518 -131.813995 -11.555163 1.113829 14.652721 87.761490 -0.290781 4.361541 6.340694 4.546527 0.603785 -38.614090 10.090214 -8.910802 56.361103 -0.703894 -4.130209 -28.181244 -8.672673 -3.348330 
23.488798 39.346779 84.511528 17.207399 2.714790 -1.024410 -11.610000 3.783890 -4.252510 20.351000 4.345670 -1.568270 -26.715700 6.261780 -4.475810 -1.884970 7.890320 -0.509476 2.000000 -2.000000 0.000000 -90.550003 21.957100 -161.662003 25.693600 -0.338047 0.059335 0.063469 -0.062942 -156.276993 -2.000000 2.000000 0.000000 -105.210999 136.139008 -1.515060 -117.930000 0.155384 0.102410 -0.056835 -0.018096 -126.921997 -17.596521 3.197229 12.501743 92.438103 -0.960005 4.453387 5.978856 3.007665 0.687962 -35.251698 10.247830 -9.195924 55.593952 -0.799512 -4.074285 -29.458582 -8.285422 -3.666384 
23.714375 39.402508 86.739532 17.893299 2.806800 -1.486460 -12.025900 3.758670 -2.794140 20.047800 3.564310 -0.861649 -26.478800 6.398160 -6.280430 -1.691430 8.193880 -1.342620 2.000000 -2.000000 0.000000 -88.315300 24.881001 -159.910995 26.133101 -0.337589 0.060278 0.053505 -0.052608 -156.061996 -2.000000 2.000000 0.000000 -108.954002 136.899002 -2.317720 -110.889000 0.169582 0.108853 -0.057996 -0.024027 -124.764000 -24.510431 4.088596 10.104379 95.048927 -1.487460 4.554101 3.229628 2.201365 0.857740 -32.455956 9.905030 -8.742367 54.552113 -0.909101 -4.005323 -30.170393 -7.272979 -3.387941 
23.879398 39.606495 89.039101 18.378500 2.567290 -1.803620 -12.038200 3.829910 -1.338900 20.361099 2.910140 -0.117338 -26.504601 6.846120 -7.938380 -1.488250 8.526830 -2.028550 2.000000 -2.000000 0.000000 -85.670303 27.795900 -157.779007 29.160500 -0.334237 0.066675 0.065519 -0.058686 -158.376999 -2.000000 2.000000 0.000000 -112.872002 137.529007 -4.337610 -101.788002 0.188914 0.114519 -0.058373 -0.025735 -124.139000 -30.951447 4.758361 7.151381 95.436745 -1.765453 4.638153 0.845980 2.314485 0.952103 -29.119467 9.799477 -8.921399 52.576096 -1.101998 -3.861762 -29.078312 -8.663347 -4.406254 
